# author: headus 3D tools
#  using: ply2obj v1.8
#   from: uvlayout v2.09.04
mtllib Lightpoll.mtl
# 80 vertices
v 0.331000 16.048000 -7.519000
v 0.190929 16.048000 -7.886060
v -0.000414 16.048000 -7.991997
v -0.191754 16.048000 -7.886060
v -0.331828 16.048000 -7.519000
v -0.331828 16.048000 -6.883555
v -0.191754 16.048000 -6.516494
v -0.000414 16.048000 -6.410557
v 0.190929 16.048000 -6.516494
v 0.331000 16.048000 -6.883555
v 0.611957 16.264773 -7.788351
v 0.353138 16.264773 -8.466592
v -0.000414 16.264773 -8.662337
v -0.353967 16.264773 -8.466592
v -0.612786 16.264773 -7.788351
v -0.612786 16.264773 -6.614203
v -0.353967 16.264773 -5.935963
v -0.000414 16.264773 -5.740217
v 0.353138 16.264773 -5.935963
v 0.611957 16.264773 -6.614203
v 0.799689 16.589194 -7.968327
v 0.461524 16.589194 -8.854491
v -0.000414 16.589194 -9.110245
v -0.462354 16.589194 -8.854491
v -0.800517 16.589194 -7.968327
v -0.800517 16.589194 -6.434228
v -0.462354 16.589194 -5.548063
v -0.000414 16.589194 -5.292310
v 0.461524 16.589194 -5.548063
v 0.799689 16.589194 -6.434228
v 0.865610 16.676274 -8.031524
v 0.499585 16.676274 -8.990702
v -0.000414 16.676274 -9.267528
v -0.500412 16.676274 -8.990702
v -0.866439 16.676274 -8.031524
v -0.866439 16.676274 -6.371029
v -0.500412 16.676274 -5.411851
v -0.000414 16.676274 -5.135026
v 0.499585 16.676274 -5.411851
v 0.865610 16.676274 -6.371029
v 0.799689 17.058958 -7.968327
v 0.461524 17.058958 -8.854491
v -0.000414 17.058958 -9.110245
v -0.462354 17.058958 -8.854491
v -0.800517 17.058958 -7.968327
v -0.800517 17.058958 -6.434228
v -0.462354 17.058958 -5.548063
v -0.000414 17.058958 -5.292310
v 0.461524 17.058958 -5.548063
v 0.799689 17.058958 -6.434228
v 0.611957 17.258735 -7.788351
v 0.353138 17.258735 -8.466592
v -0.000414 17.258735 -8.662337
v -0.353967 17.258735 -8.466592
v -0.612786 17.258735 -7.788351
v -0.612786 17.258735 -6.614203
v -0.353967 17.258735 -5.935963
v -0.000414 17.258735 -5.740217
v 0.353138 17.258735 -5.935963
v 0.611957 17.258735 -6.614203
v -0.000414 15.971880 -7.201277
v -0.000414 17.383380 -7.201277
v -0.280930 16.014361 -1.990190
v 0.031732 15.938646 -1.920573
v 0.031732 16.351690 -1.873371
v -0.257128 16.267008 -1.937405
v 0.344393 16.014361 -1.990190
v 0.320594 16.267008 -1.937405
v -0.250878 15.083075 -1.335674
v 0.061784 14.996707 -1.391526
v 0.061784 15.083796 -0.987049
v -0.227078 15.124567 -1.085077
v 0.374443 15.083075 -1.335674
v 0.350645 15.124567 -1.085077
v -0.313076 -0.828290 0.214129
v -0.000414 -0.914656 0.158276
v -0.000414 -0.827566 0.562750
v -0.289274 -0.786796 0.464722
v 0.312248 -0.828290 0.214129
v 0.288448 -0.786796 0.464722
# 324 normals
vn 0.483397 -0.855674 -0.184460
vn 0.483397 -0.855674 -0.184460
vn 0.483397 -0.855674 -0.184460
vn 0.483397 -0.855674 -0.184460
vn 0.167918 -0.937893 -0.303302
vn 0.167918 -0.937893 -0.303302
vn 0.167918 -0.937893 -0.303302
vn 0.167918 -0.937893 -0.303302
vn -0.167918 -0.937893 -0.303302
vn -0.167918 -0.937893 -0.303302
vn -0.167918 -0.937893 -0.303302
vn -0.167918 -0.937893 -0.303302
vn -0.483397 -0.855674 -0.184460
vn -0.483397 -0.855674 -0.184460
vn -0.483397 -0.855674 -0.184460
vn -0.483397 -0.855674 -0.184460
vn -0.610847 -0.791674 0.000000
vn -0.610847 -0.791674 0.000000
vn -0.610847 -0.791674 0.000000
vn -0.610847 -0.791674 0.000000
vn -0.483397 -0.855674 0.184460
vn -0.483397 -0.855674 0.184460
vn -0.483397 -0.855674 0.184460
vn -0.483397 -0.855674 0.184460
vn -0.167918 -0.937893 0.303302
vn -0.167918 -0.937893 0.303302
vn -0.167918 -0.937893 0.303302
vn -0.167918 -0.937893 0.303302
vn 0.167918 -0.937893 0.303302
vn 0.167918 -0.937893 0.303302
vn 0.167918 -0.937893 0.303302
vn 0.167918 -0.937893 0.303302
vn 0.483397 -0.855674 0.184460
vn 0.483397 -0.855674 0.184460
vn 0.483397 -0.855674 0.184460
vn 0.483397 -0.855674 0.184460
vn 0.610847 -0.791674 0.000000
vn 0.610847 -0.791674 0.000000
vn 0.610847 -0.791674 0.000000
vn 0.610847 -0.791674 0.000000
vn 0.751572 -0.593939 -0.286791
vn 0.751572 -0.593939 -0.286791
vn 0.751572 -0.593939 -0.286791
vn 0.751572 -0.593939 -0.286791
vn 0.308826 -0.770189 -0.557895
vn 0.308826 -0.770189 -0.557895
vn 0.308826 -0.770189 -0.557895
vn 0.308826 -0.770189 -0.557895
vn -0.308826 -0.770189 -0.557895
vn -0.308826 -0.770189 -0.557895
vn -0.308826 -0.770189 -0.557895
vn -0.308826 -0.770189 -0.557895
vn -0.751572 -0.593939 -0.286791
vn -0.751572 -0.593939 -0.286791
vn -0.751572 -0.593939 -0.286791
vn -0.751572 -0.593939 -0.286791
vn -0.865470 -0.500763 0.000000
vn -0.865470 -0.500763 0.000000
vn -0.865470 -0.500763 0.000000
vn -0.865470 -0.500763 0.000000
vn -0.751572 -0.593939 0.286791
vn -0.751572 -0.593939 0.286791
vn -0.751572 -0.593939 0.286791
vn -0.751572 -0.593939 0.286791
vn -0.308826 -0.770189 0.557895
vn -0.308826 -0.770189 0.557895
vn -0.308826 -0.770189 0.557895
vn -0.308826 -0.770189 0.557895
vn 0.308826 -0.770189 0.557895
vn 0.308826 -0.770189 0.557895
vn 0.308826 -0.770189 0.557895
vn 0.308826 -0.770189 0.557895
vn 0.751572 -0.593939 0.286791
vn 0.751572 -0.593939 0.286791
vn 0.751572 -0.593939 0.286791
vn 0.751572 -0.593939 0.286791
vn 0.865470 -0.500763 0.000000
vn 0.865470 -0.500763 0.000000
vn 0.865470 -0.500763 0.000000
vn 0.865470 -0.500763 0.000000
vn 0.671885 -0.694775 -0.256394
vn 0.671885 -0.694775 -0.256394
vn 0.671885 -0.694775 -0.256394
vn 0.671885 -0.694775 -0.256394
vn 0.258927 -0.844992 -0.467771
vn 0.258927 -0.844992 -0.467771
vn 0.258927 -0.844992 -0.467771
vn 0.258927 -0.844992 -0.467771
vn -0.258927 -0.844992 -0.467771
vn -0.258927 -0.844992 -0.467771
vn -0.258927 -0.844992 -0.467771
vn -0.258927 -0.844992 -0.467771
vn -0.671885 -0.694775 -0.256394
vn -0.671885 -0.694775 -0.256394
vn -0.671885 -0.694775 -0.256394
vn -0.671885 -0.694775 -0.256394
vn -0.797229 -0.603522 0.000000
vn -0.797229 -0.603522 0.000000
vn -0.797229 -0.603522 0.000000
vn -0.797229 -0.603522 0.000000
vn -0.671885 -0.694775 0.256394
vn -0.671885 -0.694775 0.256394
vn -0.671885 -0.694775 0.256394
vn -0.671885 -0.694775 0.256394
vn -0.258927 -0.844992 0.467771
vn -0.258927 -0.844992 0.467771
vn -0.258927 -0.844992 0.467771
vn -0.258927 -0.844992 0.467771
vn 0.258927 -0.844992 0.467771
vn 0.258927 -0.844992 0.467771
vn 0.258927 -0.844992 0.467771
vn 0.258927 -0.844992 0.467771
vn 0.671885 -0.694775 0.256394
vn 0.671885 -0.694775 0.256394
vn 0.671885 -0.694775 0.256394
vn 0.671885 -0.694775 0.256394
vn 0.797229 -0.603522 0.000000
vn 0.797229 -0.603522 0.000000
vn 0.797229 -0.603522 0.000000
vn 0.797229 -0.603522 0.000000
vn 0.912409 0.214674 -0.348196
vn 0.912409 0.214674 -0.348196
vn 0.912409 0.214674 -0.348196
vn 0.912409 0.214674 -0.348196
vn 0.455777 0.338277 -0.823170
vn 0.455777 0.338277 -0.823170
vn 0.455777 0.338277 -0.823170
vn 0.455777 0.338277 -0.823170
vn -0.455777 0.338277 -0.823201
vn -0.455777 0.338277 -0.823201
vn -0.455777 0.338277 -0.823201
vn -0.455777 0.338277 -0.823201
vn -0.912409 0.214674 -0.348196
vn -0.912409 0.214674 -0.348196
vn -0.912409 0.214674 -0.348196
vn -0.912409 0.214674 -0.348196
vn -0.985473 0.169749 0.000000
vn -0.985473 0.169749 0.000000
vn -0.985473 0.169749 0.000000
vn -0.985473 0.169749 0.000000
vn -0.912409 0.214674 0.348196
vn -0.912409 0.214674 0.348196
vn -0.912409 0.214674 0.348196
vn -0.912409 0.214674 0.348196
vn 0.912409 0.214674 0.348196
vn 0.912409 0.214674 0.348196
vn 0.912409 0.214674 0.348196
vn 0.912409 0.214674 0.348196
vn 0.985473 0.169749 0.000000
vn 0.985473 0.169749 0.000000
vn 0.985473 0.169749 0.000000
vn 0.985473 0.169749 0.000000
vn 0.598303 0.767930 -0.228316
vn 0.598303 0.767930 -0.228316
vn 0.598303 0.767930 -0.228316
vn 0.598303 0.767930 -0.228316
vn 0.219984 0.890832 -0.397333
vn 0.219984 0.890832 -0.397333
vn 0.219984 0.890832 -0.397333
vn 0.219984 0.890832 -0.397333
vn -0.219984 0.890832 -0.397333
vn -0.219984 0.890832 -0.397333
vn -0.219984 0.890832 -0.397333
vn -0.219984 0.890832 -0.397333
vn -0.598303 0.767930 -0.228316
vn -0.598303 0.767930 -0.228316
vn -0.598303 0.767930 -0.228316
vn -0.598303 0.767930 -0.228316
vn -0.728652 0.684795 0.000000
vn -0.728652 0.684795 0.000000
vn -0.728652 0.684795 0.000000
vn -0.728652 0.684795 0.000000
vn -0.598303 0.767930 0.228316
vn -0.598303 0.767930 0.228316
vn -0.598303 0.767930 0.228316
vn -0.598303 0.767930 0.228316
vn -0.219984 0.890832 0.397333
vn -0.219984 0.890832 0.397333
vn -0.219984 0.890832 0.397333
vn -0.219984 0.890832 0.397333
vn 0.219984 0.890832 0.397333
vn 0.219984 0.890832 0.397333
vn 0.219984 0.890832 0.397333
vn 0.219984 0.890832 0.397333
vn 0.598303 0.767930 0.228316
vn 0.598303 0.767930 0.228316
vn 0.598303 0.767930 0.228316
vn 0.598303 0.767930 0.228316
vn 0.728652 0.684795 0.000000
vn 0.728652 0.684795 0.000000
vn 0.728652 0.684795 0.000000
vn 0.728652 0.684795 0.000000
vn 0.165476 -0.984160 -0.063145
vn 0.165476 -0.984160 -0.063145
vn 0.165476 -0.984160 -0.063145
vn 0.052951 -0.993988 -0.095678
vn 0.052951 -0.993988 -0.095678
vn 0.052951 -0.993988 -0.095678
vn -0.052951 -0.993988 -0.095678
vn -0.052951 -0.993988 -0.095678
vn -0.052951 -0.993988 -0.095678
vn -0.165476 -0.984160 -0.063145
vn -0.165476 -0.984160 -0.063145
vn -0.165476 -0.984160 -0.063145
vn -0.223769 -0.974608 0.000000
vn -0.223769 -0.974608 0.000000
vn -0.223769 -0.974608 0.000000
vn -0.165476 -0.984160 0.063145
vn -0.165476 -0.984160 0.063145
vn -0.165476 -0.984160 0.063145
vn -0.052951 -0.993988 0.095678
vn -0.052951 -0.993988 0.095678
vn -0.052951 -0.993988 0.095678
vn 0.052951 -0.993988 0.095678
vn 0.052951 -0.993988 0.095678
vn 0.052951 -0.993988 0.095678
vn 0.165476 -0.984160 0.063145
vn 0.165476 -0.984160 0.063145
vn 0.165476 -0.984160 0.063145
vn 0.223769 -0.974608 0.000000
vn 0.223769 -0.974608 0.000000
vn 0.223769 -0.974608 0.000000
vn 0.147104 0.987487 -0.056125
vn 0.147104 0.987487 -0.056125
vn 0.147104 0.987487 -0.056125
vn 0.046969 0.995269 -0.084905
vn 0.046969 0.995269 -0.084905
vn 0.046969 0.995269 -0.084905
vn -0.046969 0.995269 -0.084905
vn -0.046969 0.995269 -0.084905
vn -0.046969 0.995269 -0.084905
vn -0.147104 0.987487 -0.056125
vn -0.147104 0.987487 -0.056125
vn -0.147104 0.987487 -0.056125
vn -0.199384 0.979888 0.000000
vn -0.199384 0.979888 0.000000
vn -0.199384 0.979888 0.000000
vn -0.147104 0.987487 0.056125
vn -0.147104 0.987487 0.056125
vn -0.147104 0.987487 0.056125
vn -0.046969 0.995269 0.084905
vn -0.046969 0.995269 0.084905
vn -0.046969 0.995269 0.084905
vn 0.046969 0.995269 0.084905
vn 0.046969 0.995269 0.084905
vn 0.046969 0.995269 0.084905
vn 0.147104 0.987487 0.056125
vn 0.147104 0.987487 0.056125
vn 0.147104 0.987487 0.056125
vn 0.199384 0.979888 0.000000
vn 0.199384 0.979888 0.000000
vn 0.199384 0.979888 0.000000
vn -0.003174 -0.978484 -0.206159
vn -0.003174 -0.978484 -0.206159
vn -0.003174 -0.978484 -0.206159
vn -0.003174 -0.978484 -0.206159
vn -0.197735 0.957212 0.210828
vn -0.197735 0.957212 0.210828
vn -0.197735 0.957212 0.210828
vn -0.197735 0.957212 0.210828
vn -0.990753 0.107154 0.082006
vn -0.990753 0.107154 0.082006
vn -0.990753 0.107154 0.082006
vn -0.990753 0.107154 0.082006
vn 0.003144 -0.978453 -0.206220
vn 0.003144 -0.978453 -0.206220
vn 0.003144 -0.978453 -0.206220
vn 0.003144 -0.978453 -0.206220
vn 0.992370 0.104956 0.063450
vn 0.992370 0.104956 0.063450
vn 0.992370 0.104956 0.063450
vn 0.992370 0.104956 0.063450
vn 0.196362 0.958310 0.207410
vn 0.196362 0.958310 0.207410
vn 0.196362 0.958310 0.207410
vn 0.196362 0.958310 0.207410
vn -0.119636 -0.533022 -0.837545
vn -0.119636 -0.533022 -0.837545
vn -0.119636 -0.533022 -0.837545
vn -0.119636 -0.533022 -0.837545
vn -0.262864 0.560093 0.785509
vn -0.262864 0.560093 0.785509
vn -0.262864 0.560093 0.785509
vn -0.262864 0.560093 0.785509
vn -0.992858 0.049503 0.107703
vn -0.992858 0.049503 0.107703
vn -0.992858 0.049503 0.107703
vn -0.992858 0.049503 0.107703
vn 0.118171 -0.527620 -0.841146
vn 0.118171 -0.527620 -0.841146
vn 0.118171 -0.527620 -0.841146
vn 0.118171 -0.527620 -0.841146
vn 0.993682 0.083288 0.075078
vn 0.993682 0.083288 0.075078
vn 0.993682 0.083288 0.075078
vn 0.993682 0.083288 0.075078
vn 0.261857 0.568791 0.779528
vn 0.261857 0.568791 0.779528
vn 0.261857 0.568791 0.779528
vn 0.261857 0.568791 0.779528
vn -0.200177 -0.094183 -0.975127
vn -0.200177 -0.094183 -0.975127
vn -0.200177 -0.094183 -0.975127
vn -0.200177 -0.094183 -0.975127
vn -0.308033 0.093389 0.946744
vn -0.308033 0.093389 0.946744
vn -0.308033 0.093389 0.946744
vn -0.308033 0.093389 0.946744
vn -0.995636 0.012818 0.092413
vn -0.995636 0.012818 0.092413
vn -0.995636 0.012818 0.092413
vn -0.995636 0.012818 0.092413
vn 0.200604 -0.095678 -0.974913
vn 0.200604 -0.095678 -0.974913
vn 0.200604 -0.095678 -0.974913
vn 0.200604 -0.095678 -0.974913
vn 0.995575 0.005158 0.093664
vn 0.995575 0.005158 0.093664
vn 0.995575 0.005158 0.093664
vn 0.995575 0.005158 0.093664
vn 0.308460 0.091009 0.946866
vn 0.308460 0.091009 0.946866
vn 0.308460 0.091009 0.946866
vn 0.308460 0.091009 0.946866
# 99 uv coords
vt 0.837053 0.215752
vt 0.830702 0.199144
vt 0.822600 0.194440
vt 0.814499 0.199144
vt 0.808148 0.215752
vt 0.808148 0.245008
vt 0.814498 0.261617
vt 0.822600 0.266322
vt 0.830702 0.261617
vt 0.837053 0.245009
vt 0.851843 0.202830
vt 0.838781 0.171554
vt 0.822600 0.162705
vt 0.806420 0.171554
vt 0.793358 0.202830
vt 0.793358 0.257931
vt 0.806420 0.289207
vt 0.822600 0.298056
vt 0.838780 0.289208
vt 0.851843 0.257931
vt 0.867113 0.192999
vt 0.847040 0.150397
vt 0.822600 0.138375
vt 0.798160 0.150396
vt 0.778088 0.192998
vt 0.778088 0.267762
vt 0.798160 0.310364
vt 0.822600 0.322386
vt 0.847040 0.310364
vt 0.867113 0.267762
vt 0.900446 0.194711
vt 0.918172 0.154207
vt 0.939218 0.143166
vt 0.960302 0.154132
vt 0.978172 0.194574
vt 0.979339 0.266773
vt 0.899534 0.266915
vt 0.911643 0.204167
vt 0.923879 0.173228
vt 0.939256 0.164518
vt 0.954663 0.173173
vt 0.967009 0.204068
vt 0.967710 0.258889
vt 0.956157 0.290929
vt 0.939496 0.300331
vt 0.922802 0.290988
vt 0.911136 0.258990
vt 0.822601 0.230381
vt 0.939376 0.232175
vt 0.181041 0.057313
vt 0.187260 0.042941
vt 0.175212 0.081970
vt 0.175426 0.067766
vt 0.175395 0.096139
vt 0.237299 0.057711
vt 0.239793 0.042811
vt 0.245063 0.083075
vt 0.240900 0.068829
vt 0.241343 0.097175
vt 0.849017 0.317234
vt 0.822600 0.330077
vt 0.871385 0.271071
vt 0.796183 0.317233
vt 0.871385 0.189690
vt 0.773815 0.271071
vt 0.849017 0.143527
vt 0.773815 0.189689
vt 0.822600 0.130684
vt 0.796184 0.143527
vt 0.964454 0.309707
vt 0.939537 0.323093
vt 0.914572 0.309795
vt 0.996592 0.270978
vt 0.981781 0.319194
vt 0.897279 0.319344
vt 0.882296 0.271181
vt 0.994656 0.188037
vt 0.883939 0.188233
vt 0.970190 0.139375
vt 0.908232 0.139485
vt 0.939186 0.125486
vt 0.015257 0.048537
vt 0.032085 0.026729
vt 0.184089 0.028049
vt 0.237051 0.027722
vt 0.993493 0.053637
vt 0.991133 0.068741
vt 0.022255 0.001946
vt 0.001946 0.064951
vt 0.989550 0.038530
vt 0.992797 0.081031
vt 0.012606 0.086647
vt 0.996519 0.095357
vt 0.002287 0.109313
vt 0.993428 0.109672
vt 0.238417 0.108497
vt 0.180269 0.106820
vt 0.014522 0.124921
vt 0.993297 0.121695
# 86 polygons
usemtl initialShadingGroup
s off
g pSphere1
f 1/1/1 2/2/2 12/12/3 11/11/4
f 2/2/5 3/3/6 13/13/7 12/12/8
f 3/3/9 4/4/10 14/14/11 13/13/12
f 4/4/13 5/5/14 15/15/15 14/14/16
f 15/15/17 5/5/18 6/6/19 16/16/20
f 6/6/21 7/7/22 17/17/23 16/16/24
f 7/7/25 8/8/26 18/18/27 17/17/28
f 8/8/29 9/9/30 19/19/31 18/18/32
f 9/9/33 10/10/34 20/20/35 19/19/36
f 20/20/37 10/10/38 1/1/39 11/11/40
f 11/11/41 12/12/42 22/22/43 21/21/44
f 12/12/45 13/13/46 23/23/47 22/22/48
f 13/13/49 14/14/50 24/24/51 23/23/52
f 14/14/53 15/15/54 25/25/55 24/24/56
f 25/25/57 15/15/58 16/16/59 26/26/60
f 16/16/61 17/17/62 27/27/63 26/26/64
f 17/17/65 18/18/66 28/28/67 27/27/68
f 18/18/69 19/19/70 29/29/71 28/28/72
f 19/19/73 20/20/74 30/30/75 29/29/76
f 30/30/77 20/20/78 11/11/79 21/21/80
f 21/21/81 22/22/82 32/66/83 31/64/84
f 22/22/85 23/23/86 33/68/87 32/66/88
f 23/23/89 24/24/90 34/69/91 33/68/92
f 24/24/93 25/25/94 35/67/95 34/69/96
f 35/67/97 25/25/98 26/26/99 36/65/100
f 26/26/101 27/27/102 37/63/103 36/65/104
f 27/27/105 28/28/106 38/61/107 37/63/108
f 28/28/109 29/29/110 39/60/111 38/61/112
f 29/29/113 30/30/114 40/62/115 39/60/116
f 40/62/117 30/30/118 21/21/119 31/64/120
f 31/78/121 32/80/122 42/32/123 41/31/124
f 32/80/125 33/81/126 43/33/127 42/32/128
f 33/81/129 34/79/130 44/34/131 43/33/132
f 34/79/133 35/77/134 45/35/135 44/34/136
f 45/35/137 35/77/138 36/73/139 46/36/140
f 36/73/141 37/74/142 47/70/143 46/36/144
f 39/75/145 40/76/146 50/37/147 49/72/148
f 50/37/149 40/76/150 31/78/151 41/31/152
f 41/31/153 42/32/154 52/39/155 51/38/156
f 42/32/157 43/33/158 53/40/159 52/39/160
f 43/33/161 44/34/162 54/41/163 53/40/164
f 44/34/165 45/35/166 55/42/167 54/41/168
f 55/42/169 45/35/170 46/36/171 56/43/172
f 46/36/173 47/70/174 57/44/175 56/43/176
f 47/70/177 48/71/178 58/45/179 57/44/180
f 48/71/181 49/72/182 59/46/183 58/45/184
f 49/72/185 50/37/186 60/47/187 59/46/188
f 60/47/189 50/37/190 41/31/191 51/38/192
f 2/2/193 1/1/194 61/48/195
f 3/3/196 2/2/197 61/48/198
f 4/4/199 3/3/200 61/48/201
f 5/5/202 4/4/203 61/48/204
f 6/6/205 5/5/206 61/48/207
f 7/7/208 6/6/209 61/48/210
f 8/8/211 7/7/212 61/48/213
f 9/9/214 8/8/215 61/48/216
f 10/10/217 9/9/218 61/48/219
f 1/1/220 10/10/221 61/48/222
f 51/38/223 52/39/224 62/49/225
f 52/39/226 53/40/227 62/49/228
f 53/40/229 54/41/230 62/49/231
f 54/41/232 55/42/233 62/49/234
f 62/49/235 55/42/236 56/43/237
f 56/43/238 57/44/239 62/49/240
f 57/44/241 58/45/242 62/49/243
f 58/45/244 59/46/245 62/49/246
f 59/46/247 60/47/248 62/49/249
f 62/49/250 60/47/251 51/38/252
f 37/82/253 38/83/254 64/51/255 63/50/256
f 48/92/257 47/89/258 66/53/259 65/52/260
f 47/89/261 37/82/262 63/50/263 66/53/264
f 38/83/265 39/88/266 67/84/267 64/51/268
f 39/98/269 49/94/270 68/54/271 67/97/272
f 49/94/273 48/92/274 65/52/275 68/54/276
f 63/50/277 64/51/278 70/56/279 69/55/280
f 65/52/281 66/53/282 72/58/283 71/57/284
f 66/53/285 63/50/286 69/55/287 72/58/288
f 64/51/289 67/84/290 73/85/291 70/56/292
f 67/97/293 68/54/294 74/59/295 73/96/296
f 68/54/297 65/52/298 71/57/299 74/59/300
f 69/55/301 70/56/302 76/86/303 75/87/304
f 71/57/305 72/58/306 78/91/307 77/93/308
f 72/58/309 69/55/310 75/87/311 78/91/312
f 70/56/313 73/85/314 79/90/315 76/86/316
f 73/96/317 74/59/318 80/95/319 79/99/320
f 74/59/321 71/57/322 77/93/323 80/95/324
# totals: 80 99 324 86
